<svg width="26" height="26" viewBox="0 0 26 26" fill="none" xmlns="http://www.w3.org/2000/svg">
<g id="explore">
<path id="Vector" d="M25 13C25 6.375 19.625 1 13 1C6.375 1 1 6.375 1 13C1 19.625 6.375 25 13 25C19.625 25 25 19.625 25 13Z" stroke="black" stroke-width="2" stroke-miterlimit="10"/>
<path id="Vector_2" d="M18.9169 6.43313L11.5919 9.36313C11.0888 9.56431 10.6318 9.8656 10.2487 10.2487C9.86561 10.6318 9.56431 11.0888 9.36313 11.5919L6.43313 18.9169C6.39676 19.0077 6.38786 19.1073 6.40752 19.2032C6.42719 19.299 6.47456 19.387 6.54377 19.4562C6.61298 19.5254 6.70097 19.5728 6.79685 19.5925C6.89273 19.6121 6.99227 19.6032 7.08313 19.5669L14.4081 16.6369C14.9112 16.4357 15.3682 16.1344 15.7513 15.7513C16.1344 15.3682 16.4357 14.9112 16.6369 14.4081L19.5669 7.08313C19.6033 6.99226 19.6122 6.89272 19.5925 6.79685C19.5728 6.70097 19.5254 6.61297 19.4562 6.54377C19.387 6.47456 19.299 6.42719 19.2032 6.40752C19.1073 6.38785 19.0077 6.39675 18.9169 6.43313ZM13 14.5C12.7033 14.5 12.4133 14.412 12.1666 14.2472C11.92 14.0824 11.7277 13.8481 11.6142 13.574C11.5007 13.2999 11.4709 12.9983 11.5288 12.7074C11.5867 12.4164 11.7296 12.1491 11.9393 11.9393C12.1491 11.7296 12.4164 11.5867 12.7074 11.5288C12.9983 11.4709 13.2999 11.5006 13.574 11.6142C13.8481 11.7277 14.0824 11.92 14.2472 12.1666C14.412 12.4133 14.5 12.7033 14.5 13C14.5 13.3978 14.342 13.7794 14.0607 14.0607C13.7794 14.342 13.3978 14.5 13 14.5Z" fill="black"/>
</g>
</svg>
