<svg width="24" height="24" viewBox="0 0 24 24" fill="none" xmlns="http://www.w3.org/2000/svg">
<g id="History">
<path id="Vector" d="M12 0C8.84872 0.00168045 5.82431 1.24159 3.57872 3.45244V0H1.97706V6.40667H8.38373V4.805H4.49403C5.4649 3.79304 6.63022 2.98767 7.92005 2.43721C9.20987 1.88674 10.5976 1.60255 12 1.60167C17.7335 1.60167 22.3983 6.26652 22.3983 12C22.3983 17.7335 17.7335 22.3983 12 22.3983C6.26652 22.3983 1.60167 17.7335 1.60167 12H0C-2.95418e-06 14.3734 0.703782 16.6934 2.02236 18.6668C3.34093 20.6402 5.21508 22.1783 7.40779 23.0865C9.6005 23.9948 12.0133 24.2324 14.3411 23.7694C16.6688 23.3064 18.807 22.1635 20.4853 20.4853C22.1635 18.807 23.3064 16.6688 23.7694 14.3411C24.2324 12.0133 23.9948 9.6005 23.0865 7.40779C22.1783 5.21508 20.6402 3.34093 18.6668 2.02236C16.6934 0.703782 14.3734 -2.95418e-06 12 0Z" fill="black"/>
<path id="Vector_2" d="M11.1866 4.80255L11.1599 13.6142H17.5933V12.0125H12.7664L12.7883 4.80746L11.1866 4.80255Z" fill="black"/>
</g>
</svg>
