<svg width="24" height="24" viewBox="0 0 24 24" fill="none" xmlns="http://www.w3.org/2000/svg">
<g id="Library">
<path id="Vector" d="M22.6154 0H5.07692C4.7097 0 4.35752 0.145879 4.09785 0.405544C3.83819 0.66521 3.69231 1.01739 3.69231 1.38462V18.9231C3.69231 19.2903 3.83819 19.6425 4.09785 19.9021C4.35752 20.1618 4.7097 20.3077 5.07692 20.3077H22.6154C22.9826 20.3077 23.3348 20.1618 23.5945 19.9021C23.8541 19.6425 24 19.2903 24 18.9231V1.38462C24 1.01739 23.8541 0.66521 23.5945 0.405544C23.3348 0.145879 22.9826 0 22.6154 0ZM22.1538 18.4615H5.53846V1.84615H22.1538V18.4615Z" fill="black"/>
<path id="Vector_2" d="M1.84615 22.1538V3.69231H0V22.6154C0 22.9826 0.145879 23.3348 0.405544 23.5945C0.66521 23.8541 1.01739 24 1.38462 24H20.3077V22.1538H1.84615Z" fill="black"/>
<path id="Polygon 1" d="M16.169 10.1745L11.3109 13.0532L11.2469 7.40667L16.169 10.1745Z" fill="black"/>
</g>
</svg>
