<svg width="24" height="27" viewBox="0 0 24 27" fill="none" xmlns="http://www.w3.org/2000/svg">
<path id="home" d="M23.6614 8.9398L12.3527 0.182344C12.1979 0.0626578 12.0074 -0.00154951 11.8118 2.84035e-05C11.6161 0.00160632 11.4267 0.0688781 11.2738 0.191046L0.326812 8.94816C0.224865 9.02994 0.142576 9.13356 0.0860127 9.25139C0.02945 9.36921 5.65893e-05 9.49823 6.95312e-08 9.62893V25.4649C-4.56687e-05 25.5794 0.0224742 25.6928 0.0662725 25.7986C0.110071 25.9044 0.174289 26.0005 0.255256 26.0815C0.336224 26.1624 0.432354 26.2267 0.538152 26.2705C0.64395 26.3143 0.757342 26.3368 0.871847 26.3367H7.37921C7.61041 26.3366 7.83211 26.2448 7.99559 26.0813C8.15908 25.9178 8.25096 25.6961 8.25105 25.4649V15.7688H15.7479V25.4649C15.7479 25.6961 15.8398 25.9179 16.0033 26.0814C16.1668 26.2449 16.3885 26.3367 16.6197 26.3367H23.1282C23.3594 26.3366 23.5811 26.2448 23.7445 26.0813C23.908 25.9178 23.9999 25.6961 24 25.4649V9.62893C24.0001 9.4958 23.9696 9.36443 23.9109 9.24495C23.8522 9.12547 23.7668 9.02107 23.6614 8.9398Z" fill="black"/>
</svg>
