<svg width="24" height="23" viewBox="0 0 24 23" fill="none" xmlns="http://www.w3.org/2000/svg">
<path id="Liked videos" d="M21.6 7.2H14.8656L16.2132 3.1596C16.4556 2.43 16.3332 1.6212 15.8832 0.9972C15.4332 0.3732 14.7036 0 13.9344 0H12C11.6436 0 11.3064 0.1584 11.0772 0.432L5.4372 7.2H2.4C1.0764 7.2 0 8.2764 0 9.6V20.4C0 21.7236 1.0764 22.8 2.4 22.8H18.3684C18.8567 22.7984 19.3329 22.6486 19.7343 22.3705C20.1356 22.0924 20.443 21.699 20.616 21.2424L23.9244 12.4212C23.9746 12.2865 24.0002 12.1438 24 12V9.6C24 8.2764 22.9236 7.2 21.6 7.2ZM2.4 9.6H4.8V20.4H2.4V9.6ZM21.6 11.7828L18.3684 20.4H7.2V8.8344L12.5616 2.4H13.9368L12.0624 8.0196C12.0016 8.19998 11.9846 8.39226 12.0129 8.58051C12.0412 8.76876 12.114 8.94755 12.2252 9.10205C12.3364 9.25655 12.4828 9.38231 12.6524 9.46891C12.8219 9.55551 13.0096 9.60045 13.2 9.6H21.6V11.7828Z" fill="black"/>
</svg>
