<svg xmlns="http://www.w3.org/2000/svg" xmlns:xlink="http://www.w3.org/1999/xlink" version="1.1" width="24" height="24" viewBox="0 0 256 256" xml:space="preserve">

<defs>
</defs>
<g style="stroke: none; stroke-width: 0; stroke-dasharray: none; stroke-linecap: butt; stroke-linejoin: miter; stroke-miterlimit: 10; fill: none; fill-rule: nonzero; opacity: 1;" transform="translate(1.4065934065934016 1.4065934065934016) scale(2.81 2.81)" >
	<path d="M 69.186 38.498 c -1.406 -0.795 -2.751 -1.651 -4.34 -2.568 c 1.589 -0.978 3.057 -1.834 4.463 -2.629 c 6.541 -3.546 10.148 -10.759 9.047 -18.095 C 76.766 3.164 62.889 -3.804 52.375 2.186 C 41.616 8.361 30.857 14.413 20.22 20.77 c -8.436 5.074 -9.659 11.798 -8.314 19.745 c 0.856 4.952 4.157 8.619 8.497 11.126 c 1.528 0.856 2.995 1.712 4.646 2.69 c -1.834 1.1 -3.484 2.078 -5.257 2.995 c -7.825 4.952 -10.515 15.099 -6.113 23.291 c 4.646 8.62 15.405 11.921 24.024 7.275 c 9.292 -5.257 18.584 -10.637 27.815 -16.016 c 2.201 -1.284 4.524 -2.445 6.48 -4.035 C 81.84 59.649 80.373 44.795 69.186 38.498 z M 36.359 58.549 V 31.835 l 23.108 13.327 L 36.359 58.549 z" style="stroke: none; stroke-width: 1; stroke-dasharray: none; stroke-linecap: butt; stroke-linejoin: miter; stroke-miterlimit: 10; fill: rgb(0,0,0); fill-rule: nonzero; opacity: 1;" transform=" matrix(1 0 0 1 0 0) " stroke-linecap="round" />
</g>
</svg>