<svg width="24" height="24" viewBox="0 0 24 24" fill="none" xmlns="http://www.w3.org/2000/svg">
<g id="Subscritions">
<path id="Vector" d="M22.3636 7H1.63636C1.20237 7 0.786157 7.11853 0.47928 7.3295C0.172402 7.54048 0 7.82663 0 8.125V22.375C0 22.6734 0.172402 22.9595 0.47928 23.1705C0.786157 23.3815 1.20237 23.5 1.63636 23.5H22.3636C22.7976 23.5 23.2138 23.3815 23.5207 23.1705C23.8276 22.9595 24 22.6734 24 22.375V8.125C24 7.82663 23.8276 7.54048 23.5207 7.3295C23.2138 7.11853 22.7976 7 22.3636 7ZM21.8182 22H2.18182V8.5H21.8182V22Z" fill="black"/>
<line id="Line 3" x1="4.2" y1="3.5" x2="19.8" y2="3.5" stroke="black"/>
<line id="Line 4" x1="7.8" y1="0.5" x2="16.2" y2="0.5" stroke="black"/>
<path id="Polygon 1" d="M14.426 15.2939L10.4789 17.6329L10.4268 13.0451L14.426 15.2939Z" fill="black"/>
</g>
</svg>
