<svg width="24" height="17" viewBox="0 0 24 17" fill="none" xmlns="http://www.w3.org/2000/svg">
<g id="Your videos">
<path id="Vector" d="M22.3636 0H1.63636C1.20237 0 0.786157 0.118526 0.47928 0.329505C0.172402 0.540483 0 0.826631 0 1.125V15.375C0 15.6734 0.172402 15.9595 0.47928 16.1705C0.786157 16.3815 1.20237 16.5 1.63636 16.5H22.3636C22.7976 16.5 23.2138 16.3815 23.5207 16.1705C23.8276 15.9595 24 15.6734 24 15.375V1.125C24 0.826631 23.8276 0.540483 23.5207 0.329505C23.2138 0.118526 22.7976 0 22.3636 0ZM21.8182 15H2.18182V1.5H21.8182V15Z" fill="black"/>
<path id="Polygon 2" d="M14.426 8.29391L10.4789 10.6329L10.4268 6.04506L14.426 8.29391Z" fill="black"/>
</g>
</svg>
