<svg xmlns="http://www.w3.org/2000/svg" width="31" height="39.643"><path class="a" fill="#fdc" d="M20.717 0H4.468A4.488 4.488 0 0 0 0 4.457v30.729a4.488 4.488 0 0 0 4.468 4.457h22.055a4.487 4.487 0 0 0 4.467-4.457v-24.41Z"/><path class="b" fill="#ea5a0b" d="m20.767.03 10.23 10.756h-6.812a3.418 3.418 0 0 1-3.421-3.421Z"/><g fill="#1f276c"><path class="c" d="M23.775 31.695H7.214a1.006 1.006 0 0 0 0 2.012h16.567a1.006 1.006 0 1 0-.01-2.012ZM14.761 28.082a1 1 0 0 0 1.469 0l5.886-6.329a1.004 1.004 0 0 0-1.469-1.368l-4.145 4.457V13.855a1.006 1.006 0 1 0-2.013 0v10.987l-4.145-4.457a1.004 1.004 0 0 0-1.469 1.368Z"/></g></svg>
