<svg xmlns="http://www.w3.org/2000/svg" width="40.601" height="49.971"><defs><style></style></defs><g transform="translate(-48.013 -.008)"><path class="a" fill="#6b78c6" d="M80.416 47.638h-3.514a.781.781 0 0 1 0-1.562h3.514a5.081 5.081 0 0 0 5.075-5.075v-4.294a.781.781 0 0 1 1.562 0v4.294a6.644 6.644 0 0 1-6.637 6.637ZM50.356 29.676a.781.781 0 0 1-.781-.781v-6.246a.781.781 0 1 1 1.562 0v6.246a.781.781 0 0 1-.781.781ZM86.273 29.676a.781.781 0 0 1-.781-.781v-6.246a.781.781 0 1 1 1.562 0v6.246a.781.781 0 0 1-.781.781Z"/><path class="b" fill="#1f276c" d="M88.614 30.459v4.685a2.346 2.346 0 0 1-2.342 2.342h-3.123a.781.781 0 0 1-.781-.781v-7.808a.78.78 0 0 1 .781-.781h3.127a2.345 2.345 0 0 1 2.338 2.343ZM54.259 28.898v7.808a.781.781 0 0 1-.781.781h-3.123a2.346 2.346 0 0 1-2.342-2.342V30.46a2.345 2.345 0 0 1 2.342-2.342h3.123a.781.781 0 0 1 .781.78Z"/><path class="c" fill="#ea5a0b" d="M60.506 27.335v10.931a2.346 2.346 0 0 1-2.342 2.342h-1.562a3.908 3.908 0 0 1-3.9-3.9v-7.807a3.908 3.908 0 0 1 3.9-3.9h1.562a2.346 2.346 0 0 1 2.342 2.334Z"/><path fill="#ffc0a4" d="M88.614 20.309v.781a2.345 2.345 0 0 1-2.342 2.342H84.71a2.345 2.345 0 0 1-2.342-2.342v-.781a14.054 14.054 0 0 0-28.109 0v.781a2.345 2.345 0 0 1-2.342 2.342h-1.562a2.345 2.345 0 0 1-2.342-2.342v-.781a20.3 20.3 0 0 1 40.6 0Z"/><path class="c" fill="#ea5a0b" d="M83.926 28.901v7.8a3.908 3.908 0 0 1-3.9 3.9h-1.562a2.346 2.346 0 0 1-2.338-2.334V27.335a2.346 2.346 0 0 1 2.342-2.342h1.558a3.908 3.908 0 0 1 3.9 3.908Z"/><circle class="c" fill="#ea5a0b" cx="3.123" cy="3.123" r="3.123" transform="translate(71.437 43.733)"/></g></svg>
