<svg xmlns="http://www.w3.org/2000/svg" width="37.793" height="43"><path class="a" fill="#1f276c" d="M24.087 28.16a1.286 1.286 0 0 0-1.184.58L18.9 34.988l-4.01-6.252a1.238 1.238 0 0 0-1.184-.58C5.366 29.038 0 31.885 0 35.437c0 4.913 9.725 7.559 18.9 7.559s18.9-2.645 18.9-7.559c-.007-3.548-5.374-6.395-13.713-7.277Z"/><path class="a" fill="#1f276c" d="M37.796 35.441c0 4.913-9.725 7.559-18.9 7.559v-8.017l4.006-6.248a1.286 1.286 0 0 1 1.184-.58c8.34.887 13.71 3.734 13.71 7.286Z"/><path class="b" fill="#ea5a0b" d="M18.896 0A13.849 13.849 0 0 0 7.639 21.92l10.2 16.091a1.256 1.256 0 0 0 2.116 0L30.209 21.87A13.864 13.864 0 0 0 18.896 0Zm0 20.156a6.3 6.3 0 1 1 6.3-6.3 6.306 6.306 0 0 1-6.3 6.3Z"/><path class="b" fill="#ea5a0b" d="M18.896 0v7.559a6.3 6.3 0 1 1 0 12.6v18.432a1.217 1.217 0 0 0 1.058-.579L30.209 21.87A13.864 13.864 0 0 0 18.896 0Z"/></svg>
